HIERARCHY
ROOT Hips
{
	OFFSET 0.000000 0.000000 0.000000
	CHANNELS 6 Xposition Yposition Zposition Zrotation Yrotation Xrotation 
	JOINT LowerBack
	{
		OFFSET 0.000000 0.000000 0.000000
		CHANNELS 3 Zrotation Yrotation Xrotation
		JOINT Spine
		{
			OFFSET 0.028270 2.035590 -0.193380
			CHANNELS 3 Zrotation Yrotation Xrotation
			JOINT Spine1
			{
				OFFSET 0.056720 2.048850 -0.042750
				CHANNELS 3 Zrotation Yrotation Xrotation
				JOINT Neck
				{
					OFFSET 0.000000 0.000000 0.000000
					CHANNELS 3 Zrotation Yrotation Xrotation
					JOINT Neck1
					{
						OFFSET -0.054170 1.746240 0.172020
						CHANNELS 3 Zrotation Yrotation Xrotation
						JOINT Head
						{
							OFFSET 0.104070 1.761360 -0.123970
							CHANNELS 3 Zrotation Yrotation Xrotation
							End Site
							{
								OFFSET 0.000000 0.000000 0.000000
							}
						}
					}
				}
				JOINT LeftShoulder
				{
					OFFSET 0.000000 0.000000 0.000000
					CHANNELS 3 Zrotation Yrotation Xrotation
					JOINT LeftArm
					{
						OFFSET 3.362410 1.200890 -0.311210
						CHANNELS 3 Zrotation Yrotation Xrotation
						JOINT LeftForeArm
						{
							OFFSET 4.983000 -0.000000 -0.000000
							CHANNELS 3 Zrotation Yrotation Xrotation
							JOINT LeftHand
							{
								OFFSET 3.483560 -0.000000 -0.000000
								CHANNELS 3 Zrotation Yrotation Xrotation
								JOINT LeftFingerBase
								{
									OFFSET 0.000000 0.000000 0.000000
									CHANNELS 3 Zrotation Yrotation Xrotation
									JOINT LeftHandIndex1
									{
										OFFSET 0.715260 -0.000000 -0.000000
										CHANNELS 3 Zrotation Yrotation Xrotation
										End Site
										{
											OFFSET 0.000000 0.000000 0.000000
										}
									}
								}
								JOINT LThumb
								{
									OFFSET 0.000000 0.000000 0.000000
									CHANNELS 3 Zrotation Yrotation Xrotation
									End Site
									{
										OFFSET 0.000000 0.000000 0.000000
									}
								}
							}
						}
					}
				}
				JOINT RightShoulder
				{
					OFFSET 0.000000 0.000000 0.000000
					CHANNELS 3 Zrotation Yrotation Xrotation
					JOINT RightArm
					{
						OFFSET -3.136600 1.374050 -0.404650
						CHANNELS 3 Zrotation Yrotation Xrotation
						JOINT RightForeArm
						{
							OFFSET -5.241900 -0.000000 -0.000000
							CHANNELS 3 Zrotation Yrotation Xrotation
							JOINT RightHand
							{
								OFFSET -3.444170 -0.000000 -0.000000
								CHANNELS 3 Zrotation Yrotation Xrotation
								JOINT RightFingerBase
								{
									OFFSET 0.000000 0.000000 0.000000
									CHANNELS 3 Zrotation Yrotation Xrotation
									JOINT RightHandIndex1
									{
										OFFSET -0.622530 -0.000000 -0.000000
										CHANNELS 3 Zrotation Yrotation Xrotation
										End Site
										{
											OFFSET 0.000000 0.000000 0.000000
										}
									}
								}
								JOINT RThumb
								{
									OFFSET 0.000000 0.000000 0.000000
									CHANNELS 3 Zrotation Yrotation Xrotation
									End Site
									{
										OFFSET 0.000000 0.000000 0.000000
									}
								}
							}
						}
					}
				}
			}
		}
	}
}
}
MOTION
Frames: 11
Frame Time: 0.008333
3.746797 17.819702 3.588916 -153.196057 -81.234760 176.497949 -3.233072 -1.988593 5.609664 -1.960405 -1.716421 -1.345421 -8.485039 -1.658262 0.811710 7.823451 1.661760 3.324629 -4.665610 -0.393391 2.515098 0.000000 0.000000 0.000000 -1.479683 -7.009942 2.547484 -47.054524 -54.009971 8.121067 -2.513018 -29.291665 -0.030496 6.141554 -3.135914 -0.191660 -0.137410 0.373451 -0.000000 0.000000 0.000000 0.000000 0.000000 0.000000 0.000000 18.568505 0.122707 0.611461 60.492913 8.974990 2.729206 2.358752 34.761976 0.010955 2.337039 8.567035 0.175705 0.033191 -0.129166 0.000000 0.000000 0.000000 0.000000 0.000000 0.000000 0.000000 
3.636110 17.822087 3.590856 -153.689334 -81.193567 176.964566 -3.099485 -2.067751 5.580075 -1.924974 -1.801646 -1.342257 -8.457931 -1.742530 0.817606 7.832100 1.479206 3.239796 -4.662620 -0.392831 2.496131 0.000000 0.000000 0.000000 -1.263781 -7.018355 2.530608 -46.290031 -54.370437 7.488993 -2.435519 -29.323886 -0.031326 6.140853 -3.135746 -0.191868 -0.134284 0.379509 -0.000000 0.000000 0.000000 0.000000 0.000000 0.000000 0.000000 18.550056 -0.089859 0.609885 60.137336 8.903701 2.526843 2.345299 35.241004 0.011009 2.324935 8.582337 0.175109 0.033393 -0.130062 0.000000 0.000000 0.000000 0.000000 0.000000 0.000000 0.000000 
3.524545 17.823684 3.591612 -154.256711 -81.171119 177.508016 -2.977235 -2.146301 5.560593 -1.891844 -1.885706 -1.337950 -8.430458 -1.825852 0.822442 7.843930 1.305015 3.157621 -4.659989 -0.392287 2.477506 0.000000 0.000000 0.000000 -1.060048 -7.021083 2.511795 -45.550517 -54.656639 6.869630 -2.360116 -29.422593 -0.032108 6.137837 -3.136130 -0.191974 -0.131174 0.385314 -0.000000 0.000000 0.000000 0.000000 0.000000 0.000000 0.000000 18.537730 -0.298036 0.608475 59.798584 8.830739 2.328827 2.331978 35.688397 0.011053 2.308129 8.605208 0.174212 0.033592 -0.130891 0.000000 0.000000 0.000000 0.000000 0.000000 0.000000 0.000000 
3.411919 17.824487 3.591121 -154.913408 -81.168204 178.144150 -2.867855 -2.223901 5.548990 -1.861428 -1.968174 -1.332406 -8.403190 -1.907644 0.828385 7.859905 1.129831 3.075784 -4.658375 -0.391784 2.458637 0.000000 0.000000 0.000000 -0.872036 -7.017403 2.490983 -44.840566 -54.875149 6.272207 -2.287905 -29.583146 -0.032840 6.133349 -3.136628 -0.192079 -0.128138 0.390806 -0.000000 0.000000 0.000000 0.000000 0.000000 0.000000 0.000000 18.535701 -0.511581 0.607094 59.472599 8.763824 2.151090 2.318670 36.101076 0.011074 2.273747 8.634464 0.172215 0.033915 -0.131635 0.000000 0.000000 0.000000 0.000000 0.000000 0.000000 0.000000 
3.298053 17.824531 3.589449 -155.653486 -81.183608 178.869581 -2.768441 -2.299393 5.539981 -1.833171 -2.048134 -1.327757 -8.376661 -1.987239 0.832528 7.881764 0.966870 3.000229 -4.657478 -0.391360 2.441266 0.000000 0.000000 0.000000 -0.700203 -7.017405 2.469978 -44.170496 -55.013708 5.697426 -2.220100 -29.809362 -0.033521 6.128135 -3.134115 -0.191983 -0.125230 0.395910 -0.000000 0.000000 0.000000 0.000000 0.000000 0.000000 0.000000 18.543552 -0.716460 0.605898 59.161612 8.675676 1.971816 2.304664 36.496229 0.011068 2.229190 8.658146 0.169217 0.034260 -0.132254 0.000000 0.000000 0.000000 0.000000 0.000000 0.000000 0.000000 
3.182675 17.823802 3.586701 -156.469119 -81.214855 179.679715 -2.675687 -2.371874 5.530437 -1.806498 -2.124810 -1.323536 -8.351586 -2.063610 0.839087 7.908418 0.800734 2.926750 -4.658287 -0.391044 2.424268 0.000000 0.000000 0.000000 -0.551856 -7.016127 2.448294 -43.542366 -55.085680 5.157041 -2.157627 -30.093154 -0.034153 6.124618 -3.130625 -0.191885 -0.122527 0.400590 -0.000000 0.000000 0.000000 0.000000 0.000000 0.000000 0.000000 18.564882 -0.928940 0.604577 58.859487 8.586646 1.815720 2.290794 36.862065 0.011031 2.162515 8.680669 0.164520 0.034785 -0.132732 0.000000 0.000000 0.000000 0.000000 0.000000 0.000000 0.000000 
3.065658 17.822336 3.583006 -157.337926 -81.257765 -179.445528 -2.583774 -2.439679 5.516184 -1.780250 -2.196862 -1.321378 -8.328407 -2.135609 0.845994 7.939931 0.642443 2.860446 -4.660557 -0.390864 2.409109 0.000000 0.000000 0.000000 -0.428043 -7.020862 2.427297 -42.965074 -55.082352 4.650324 -2.101307 -30.436201 -0.034746 6.124643 -3.125505 -0.191685 -0.120084 0.404802 -0.000000 0.000000 0.000000 0.000000 0.000000 0.000000 0.000000 18.597716 -1.137214 0.603280 58.567923 8.478052 1.665366 2.277063 37.208889 0.010966 2.083722 8.695856 0.158622 0.035388 -0.133047 0.000000 0.000000 0.000000 0.000000 0.000000 0.000000 0.000000 
2.946949 17.820185 3.578558 -158.242485 -81.306978 -178.523396 -2.488042 -2.501907 5.496316 -1.753542 -2.263517 -1.320278 -8.307729 -2.202183 0.857588 7.974513 0.477949 2.796696 -4.665036 -0.390825 2.394507 0.000000 0.000000 0.000000 -0.337053 -7.022202 2.406526 -42.436199 -55.021793 4.187842 -2.051702 -30.826169 -0.035317 6.132516 -3.123046 -0.191983 -0.117993 0.408554 -0.000000 0.000000 0.000000 0.000000 0.000000 0.000000 0.000000 18.643830 -1.355868 0.601493 58.282717 8.373570 1.542314 2.264764 37.521060 0.010883 1.986724 8.710824 0.151324 0.036185 -0.133181 0.000000 0.000000 0.000000 0.000000 0.000000 0.000000 0.000000 
2.826222 17.817324 3.573642 -159.116203 -81.358728 -177.614353 -2.376137 -2.557816 5.465961 -1.723702 -2.324677 -1.320320 -8.289861 -2.263142 0.877858 8.008280 0.300569 2.732511 -4.671655 -0.390899 2.379726 0.000000 0.000000 0.000000 -0.291300 -7.008080 2.386718 -41.952208 -54.924282 3.782672 -2.009761 -31.248203 -0.035887 6.152813 -3.126347 -0.192879 -0.116377 0.411849 -0.000000 0.000000 0.000000 0.000000 0.000000 0.000000 0.000000 18.699004 -1.591392 0.598298 58.002568 8.287275 1.458153 2.255267 37.786368 0.010792 1.871677 8.732482 0.142727 0.037234 -0.133126 0.000000 0.000000 0.000000 0.000000 0.000000 0.000000 0.000000 
2.703823 17.813901 3.568188 -160.013279 -81.404124 -176.675735 -2.258293 -2.604991 5.433517 -1.693130 -2.377277 -1.323375 -8.274157 -2.316012 0.893398 8.046357 0.152945 2.686029 -4.679209 -0.391148 2.369522 0.000000 0.000000 0.000000 -0.259304 -7.016559 2.368023 -41.551753 -54.726595 3.397350 -1.974353 -31.734993 -0.036448 6.182888 -3.131778 -0.194273 -0.115082 0.414617 -0.000000 0.000000 0.000000 0.000000 0.000000 0.000000 0.000000 18.760629 -1.799048 0.596418 57.738916 8.156028 1.341171 2.247104 38.041272 0.010704 1.780698 8.736279 0.135628 0.038048 -0.132832 0.000000 0.000000 0.000000 0.000000 0.000000 0.000000 0.000000 
2.579494 17.809795 3.562548 -160.829747 -81.444626 -175.804941 -2.117019 -2.645440 5.393559 -1.657837 -2.424198 -1.326351 -8.261105 -2.362939 0.919754 8.080803 -0.009120 2.637549 -4.688434 -0.391456 2.358649 0.000000 0.000000 0.000000 -0.275898 -6.998975 2.350243 -41.202043 -54.507681 3.074905 -1.946962 -32.237797 -0.037039 6.231479 -3.147170 -0.196766 -0.114367 0.416928 -0.000000 0.000000 0.000000 0.000000 0.000000 0.000000 0.000000 18.825982 -2.024399 0.592599 57.483249 8.056247 1.264153 2.243397 38.234370 0.010633 1.684309 8.751207 0.128329 0.039055 -0.132306 0.000000 0.000000 0.000000 0.000000 0.000000 0.000000 0.000000 
